<?xml version="1.0" encoding="UTF-8" standalone="no"?>
<!DOCTYPE svg PUBLIC "-//W3C//DTD SVG 1.1//EN" "http://www.w3.org/Graphics/SVG/1.1/DTD/svg11.dtd">
<svg width="100%" height="100%" viewBox="0 0 760 418" version="1.1" xmlns="http://www.w3.org/2000/svg" xmlns:xlink="http://www.w3.org/1999/xlink" xml:space="preserve" xmlns:serif="http://www.serif.com/" style="fill-rule:evenodd;clip-rule:evenodd;stroke-linejoin:round;stroke-miterlimit:1.41421;">
    <g transform="matrix(1,0,0,1,-3025.65,-1445.81)">
        <g transform="matrix(5.55556,0,0,5.55556,0,0)">
            <g transform="matrix(1,0,0,1,605.481,275.591)">
                <path d="M0,25.043C-1.579,25.043 -2.858,26.323 -2.858,27.901C-2.858,29.48 -1.579,30.761 0,30.761C1.579,30.761 2.858,29.48 2.858,27.901C2.858,26.323 1.579,25.043 0,25.043M56.986,17.359C56.987,17.359 56.988,17.36 56.989,17.36C56.988,17.36 56.987,17.359 56.986,17.359M54.833,17.837C54.832,17.839 54.829,17.841 54.828,17.843L54.833,17.837ZM56.947,33.514L58.572,34.225C60.497,35.069 62.701,34.654 64.188,33.167L69.219,28.137C70.462,26.893 70.462,24.866 69.218,23.621L65.394,19.797C64.79,19.194 63.988,18.861 63.136,18.861C62.282,18.861 61.481,19.193 60.879,19.797L58.833,21.842C57.854,22.822 56.377,23.155 55.071,22.685C47.022,19.79 40.743,13.512 37.849,5.46C37.38,4.157 37.71,2.682 38.692,1.7L40.736,-0.345C41.981,-1.59 41.981,-3.614 40.736,-4.859L36.912,-8.685C36.309,-9.287 35.507,-9.619 34.653,-9.619C33.801,-9.619 32.999,-9.287 32.396,-8.685L27.366,-3.654C25.88,-2.168 25.465,0.036 26.309,1.961L27.021,3.587C32.9,17.006 43.528,27.634 56.947,33.514M60.63,40.321C59.174,40.321 57.702,40.022 56.301,39.408L54.676,38.696C39.951,32.245 28.289,20.583 21.837,5.857L21.125,4.232C19.339,0.158 20.218,-4.509 23.364,-7.656L28.395,-12.686C30.066,-14.358 32.29,-15.278 34.653,-15.278C37.019,-15.278 39.241,-14.358 40.913,-12.686L44.738,-8.861C48.189,-5.41 48.189,0.206 44.738,3.657L43.646,4.75C45.97,10.23 50.303,14.564 55.783,16.889L56.877,15.795C58.548,14.123 60.771,13.202 63.136,13.202C65.5,13.202 67.723,14.123 69.395,15.795L73.22,19.62C76.671,23.072 76.671,28.688 73.221,32.139L68.189,37.169C66.126,39.233 63.406,40.321 60.63,40.321M-8.042,-9.581C-9.857,-9.581 -11.335,-8.104 -11.335,-6.288L-11.335,31.319C-11.335,33.136 -9.857,34.613 -8.042,34.613L7.387,34.613C9.203,34.613 10.68,33.136 10.68,31.319L10.68,-6.288C10.68,-8.104 9.203,-9.581 7.387,-9.581L-8.042,-9.581ZM7.387,40.272L-8.042,40.272C-12.979,40.272 -16.994,36.256 -16.994,31.319L-16.994,-6.288C-16.994,-11.225 -12.979,-15.24 -8.042,-15.24L7.387,-15.24C12.323,-15.24 16.339,-11.225 16.339,-6.288L16.339,31.319C16.339,36.256 12.323,40.272 7.387,40.272" style="fill:white;fill-rule:nonzero;"/>
            </g>
        </g>
        <g transform="matrix(5.55556,0,0,5.55556,0,0)">
            <g transform="matrix(1,0,0,1,578.548,286.03)">
                <path d="M0,2.984L-25.814,20.654C-26.513,21.132 -27.168,20.878 -27.417,20.747C-27.665,20.615 -28.246,20.217 -28.246,19.372L-28.246,-15.969C-28.246,-16.816 -27.665,-17.212 -27.417,-17.344C-27.276,-17.418 -27.009,-17.531 -26.678,-17.531C-26.419,-17.531 -26.12,-17.461 -25.814,-17.252L0,0.419C0.589,0.822 0.676,1.395 0.676,1.702C0.676,2.007 0.589,2.581 0,2.984M3.212,-4.273L-22.603,-21.943C-24.824,-23.464 -27.686,-23.63 -30.067,-22.373C-32.45,-21.117 -33.931,-18.663 -33.931,-15.969L-33.931,19.372C-33.931,22.065 -32.45,24.519 -30.068,25.775C-29.004,26.337 -27.845,26.614 -26.689,26.614C-25.258,26.614 -23.832,26.187 -22.603,25.345L3.212,7.675C5.185,6.325 6.361,4.091 6.361,1.702C6.361,-0.69 5.185,-2.922 3.212,-4.273" style="fill:white;fill-rule:nonzero;"/>
            </g>
        </g>
        <g transform="matrix(5.55556,0,0,5.55556,0,0)">
            <g transform="matrix(1,0,0,1,553.663,329.533)">
                <path d="M0,-6.791L-0.024,-6.791L-0.072,-6.791L-1.916,-0.655L1.843,-0.655L0,-6.791ZM3.929,5.578L3.056,2.982L-3.178,2.982L-4.123,5.578L-9.046,5.578L-1.844,-12.369L1.771,-12.369L8.901,5.578L3.929,5.578Z" style="fill:white;fill-rule:nonzero;"/>
            </g>
        </g>
        <g transform="matrix(5.55556,0,0,5.55556,0,0)">
            <g transform="matrix(1,0,0,1,570.009,331.086)">
                <path d="M0,-9.897L-1.989,-9.897L-1.989,-0.001L-0.024,-0.001C3.104,-0.001 4.365,-2.014 4.365,-4.924C4.365,-7.787 3.056,-9.897 0,-9.897M-0.291,4.025L-6.573,4.025L-6.573,-13.922L-0.631,-13.922C2.619,-13.922 5.263,-13.389 7.3,-10.576C8.464,-8.951 8.949,-6.986 8.949,-4.998C8.949,0.896 5.578,4.025 -0.291,4.025" style="fill:white;fill-rule:nonzero;"/>
            </g>
        </g>
        <g transform="matrix(5.55556,0,0,5.55556,0,0)">
            <g transform="matrix(1,0,0,1,641.453,327.774)">
                <path d="M0,0.021C0,4.173 3.36,7.577 7.514,7.577C11.709,7.577 15.048,4.173 15.048,0.021C15.048,-4.174 11.709,-7.556 7.514,-7.556C3.36,-7.556 0,-4.174 0,0.021M3.617,0.021C3.617,-2.184 5.33,-3.96 7.514,-3.96C9.696,-3.96 11.452,-2.184 11.452,0.021C11.452,2.225 9.696,3.981 7.514,3.981C5.33,3.981 3.617,2.225 3.617,0.021M-27.828,0.021C-27.828,4.173 -24.489,7.577 -20.229,7.577C-15.991,7.577 -12.951,5.136 -12.951,-0.514L-20.979,-0.514L-20.979,2.354L-16.848,2.354C-17.168,3.724 -18.495,4.323 -20.229,4.323C-22.477,4.323 -24.211,2.333 -24.211,0.021C-24.211,-2.333 -22.477,-4.239 -20.229,-4.239C-18.988,-4.239 -17.896,-3.639 -17.126,-2.698L-14.472,-4.945C-15.756,-6.529 -17.832,-7.556 -20.229,-7.556C-24.489,-7.556 -27.828,-4.174 -27.828,0.021M-58.987,0.021C-58.987,4.173 -55.627,7.577 -51.475,7.577C-47.279,7.577 -43.939,4.173 -43.939,0.021C-43.939,-4.174 -47.279,-7.556 -51.475,-7.556C-55.627,-7.556 -58.987,-4.174 -58.987,0.021M-55.37,0.021C-55.37,-2.184 -53.657,-3.96 -51.475,-3.96C-49.291,-3.96 -47.535,-2.184 -47.535,0.021C-47.535,2.225 -49.291,3.981 -51.475,3.981C-53.657,3.981 -55.37,2.225 -55.37,0.021M28.685,-7.364L28.685,7.384L32.259,7.384L32.259,2.461L34.784,2.461C38.252,2.461 39.836,0.042 39.836,-2.441C39.836,-4.903 38.252,-7.364 34.784,-7.364L28.685,-7.364ZM32.259,-4.239L34.613,-4.239C35.791,-4.239 36.219,-3.318 36.219,-2.441C36.219,-1.563 35.791,-0.622 34.613,-0.622L32.259,-0.622L32.259,-4.239ZM24.104,-7.364L24.104,2.011C24.104,3.338 22.99,4.216 21.877,4.216C20.764,4.216 19.65,3.338 19.65,2.011L19.65,-7.364L16.055,-7.364L16.055,2.011C16.055,5.415 18.816,7.577 21.877,7.577C24.937,7.577 27.699,5.415 27.699,2.011L27.699,-7.364L24.104,-7.364ZM-11.966,-7.364L-11.966,7.384L-8.392,7.384L-8.392,2.461L-8.07,2.461L-4.902,7.384L-0.75,7.384L-4.346,2.29C-1.948,1.69 -0.814,-0.343 -0.814,-2.441C-0.814,-4.903 -2.398,-7.364 -5.866,-7.364L-11.966,-7.364ZM-8.392,-4.239L-6.037,-4.239C-4.859,-4.239 -4.432,-3.318 -4.432,-2.441C-4.432,-1.563 -4.859,-0.622 -6.037,-0.622L-8.392,-0.622L-8.392,-4.239ZM-35.313,-7.364L-35.313,0.578L-39.722,-7.364L-42.954,-7.364L-42.954,7.384L-39.38,7.384L-39.38,-0.665L-34.863,7.384L-31.738,7.384L-31.738,-7.364L-35.313,-7.364Z" style="fill:white;fill-rule:nonzero;"/>
            </g>
        </g>
        <g transform="matrix(5.55556,0,0,5.55556,0,0)">
            <g transform="matrix(1,0,0,1,681.323,264.216)">
                <path d="M0,-3.97L0,0L-0.69,0L-0.69,-3.27L-2.171,0L-2.626,0L-4.061,-3.27L-4.061,0L-4.747,0L-4.747,-3.97L-3.628,-3.97L-2.396,-1.221L-1.096,-3.97L0,-3.97ZM-5.511,-3.97L-5.511,-3.339L-6.916,-3.339L-6.916,0L-7.606,0L-7.606,-3.339L-9.002,-3.339L-9.002,-3.97L-5.511,-3.97Z" style="fill:white;fill-rule:nonzero;"/>
            </g>
        </g>
    </g>
</svg>
